<svg width="134" height="134" viewBox="0 0 134 134" fill="none" xmlns="http://www.w3.org/2000/svg">
<path d="M107.859 75.3748H86.2237C83.3558 75.3719 80.6038 76.5064 78.5712 78.5296C76.5385 80.5528 75.3913 83.2995 75.3809 86.1674V107.803C75.3794 109.227 75.6589 110.638 76.2033 111.954C76.7477 113.27 77.5463 114.466 78.5534 115.473C79.5606 116.48 80.7565 117.279 82.0726 117.823C83.3888 118.368 84.7994 118.647 86.2237 118.646H107.859C110.726 118.634 113.471 117.486 115.493 115.453C117.515 113.421 118.649 110.67 118.646 107.803V86.1674C118.648 84.7504 118.37 83.3471 117.828 82.0377C117.286 80.7283 116.492 79.5385 115.49 78.5366C114.488 77.5346 113.298 76.7401 111.989 76.1985C110.68 75.657 109.276 75.379 107.859 75.3804M47.7769 75.3748H26.1415C23.275 75.3911 20.5314 76.5412 18.5102 78.5739C16.489 80.6066 15.3545 83.3567 15.3545 86.2233V107.859C15.353 109.276 15.631 110.679 16.1726 111.988C16.7142 113.298 17.5087 114.488 18.5107 115.49C19.5126 116.491 20.7024 117.286 22.0118 117.828C23.3212 118.369 24.7245 118.647 26.1415 118.646H47.7769C50.6439 118.649 53.3951 117.515 55.4275 115.493C57.46 113.471 58.6079 110.726 58.6197 107.859V86.2233C58.6212 84.7989 58.3418 83.3883 57.7974 82.0721C57.253 80.756 56.4544 79.5601 55.4472 78.5529C54.4401 77.5458 53.2442 76.7472 51.928 76.2028C50.6118 75.6584 49.2012 75.379 47.7769 75.3804M47.7769 15.354H26.1415C24.7245 15.3525 23.3212 15.6306 22.0118 16.1721C20.7024 16.7137 19.5126 17.5082 18.5107 18.5102C17.5087 19.5121 16.7142 20.7019 16.1726 22.0113C15.631 23.3207 15.353 24.724 15.3545 26.141V47.7764C15.3515 50.6434 16.4853 53.3946 18.5073 55.427C20.5293 57.4595 23.2746 58.6074 26.1415 58.6193H47.7769C49.2012 58.6207 50.6118 58.3413 51.928 57.7969C53.2442 57.2525 54.4401 56.4539 55.4472 55.4467C56.4544 54.4396 57.253 53.2437 57.7974 51.9275C58.3418 50.6114 58.6212 49.2007 58.6197 47.7764V26.141C58.6079 23.2741 57.46 20.5288 55.4275 18.5068C53.3951 16.4848 50.6439 15.351 47.7769 15.354ZM107.859 15.354H86.2237C83.3568 15.351 80.6056 16.4848 78.5731 18.5068C76.5407 20.5288 75.3927 23.2741 75.3809 26.141V47.7764C75.3824 50.6517 76.5252 53.4087 78.5583 55.4418C80.5914 57.4749 83.3485 58.6178 86.2237 58.6193H107.859C110.726 58.6074 113.471 57.4595 115.493 55.427C117.515 53.3946 118.649 50.6434 118.646 47.7764V26.141C118.648 24.724 118.37 23.3207 117.828 22.0113C117.286 20.7019 116.492 19.5121 115.49 18.5102C114.488 17.5082 113.298 16.7137 111.989 16.1721C110.68 15.6306 109.276 15.3525 107.859 15.354Z" stroke="#1E1F1F" stroke-width="1.5" stroke-linecap="round" stroke-linejoin="round"/>
</svg>
