<svg width="50" height="50" viewBox="0 0 50 50" fill="none" xmlns="http://www.w3.org/2000/svg">
<rect width="50" height="50" rx="8" fill="url(#paint0_linear_272_306)"/>
<path d="M33.1949 23.3004C32.8828 22.8503 32.5029 22.4603 32.1501 22.0703C31.241 21.1703 30.2097 20.5253 29.3413 19.5802C27.3196 17.3902 26.8718 13.7751 28.1608 11C26.8718 11.345 25.7456 12.125 24.7822 12.9801C21.2678 16.1001 19.8838 21.6053 21.5392 26.3304C21.5935 26.4804 21.6477 26.6304 21.6477 26.8255C21.6477 27.1555 21.4442 27.4555 21.1728 27.5755C20.8607 27.7255 20.5351 27.6355 20.2773 27.3955C20.2003 27.3242 20.1359 27.2377 20.0873 27.1405C18.554 24.9954 18.3098 21.9203 19.341 19.4602C17.075 21.5003 15.8402 24.9504 16.0166 28.2055C16.098 28.9555 16.1795 29.7055 16.4101 30.4556C16.6001 31.3556 16.9665 32.2556 17.3735 33.0506C18.839 35.6457 21.3764 37.5058 24.1037 37.8808C27.0075 38.2858 30.1148 37.7008 32.3401 35.4807C34.8232 32.9906 35.6916 29.0005 34.4161 25.5804L34.2397 25.1904C33.9548 24.5004 33.1949 23.3004 33.1949 23.3004ZM28.9071 32.7506C28.5272 33.1106 27.903 33.5006 27.4145 33.6506C25.8948 34.2507 24.3751 33.4106 23.4796 32.4206C25.0943 32.0006 26.0576 30.6806 26.3426 29.3455C26.5733 28.1455 26.1391 27.1555 25.9627 26.0004C25.7998 24.8904 25.827 23.9454 26.1933 22.9103C26.4511 23.4804 26.7225 24.0504 27.0482 24.5004C28.093 26.0004 29.7348 26.6604 30.0876 28.7005C30.1419 28.9105 30.169 29.1205 30.169 29.3455C30.2097 30.5756 29.7213 31.9256 28.9071 32.7506Z" fill="white"/>
<defs>
<linearGradient id="paint0_linear_272_306" x1="25" y1="0" x2="47" y2="44.5" gradientUnits="userSpaceOnUse">
<stop stop-color="#FF7F11"/>
<stop offset="0.615222" stop-color="#F44336"/>
</linearGradient>
</defs>
</svg>
